HIERARCHY
ROOT hip
{
  OFFSET 0 0 0
  CHANNELS 6 Xposition Yposition Zposition Zrotation Yrotation Xrotation
  JOINT abdomen
  {
    OFFSET 0 20.6881 -0.73152
    CHANNELS 3 Zrotation Xrotation Yrotation
    JOINT chest
    {
      OFFSET 0 11.7043 -0.48768
      CHANNELS 3 Zrotation Xrotation Yrotation
      JOINT neck
      {
        OFFSET 0 22.1894 -2.19456
        CHANNELS 3 Zrotation Xrotation Yrotation
        JOINT head
        {
          OFFSET -0.24384 7.07133 1.2192
          CHANNELS 3 Zrotation Xrotation Yrotation
          JOINT leftEye
          {
            OFFSET 4.14528 8.04674 8.04672
            CHANNELS 3 Zrotation Xrotation Yrotation
            End Site
            {
              OFFSET 1 0 0
            }
          }
          JOINT rightEye
          {
            OFFSET -3.6576 8.04674 8.04672
            CHANNELS 3 Zrotation Xrotation Yrotation
            End Site
            {
              OFFSET 1 0 0
            }
          }
        }
      }
      JOINT rCollar
      {
        OFFSET -2.68224 19.2634 -4.8768
        CHANNELS 3 Zrotation Xrotation Yrotation
        JOINT rShldr
        {
          OFFSET -8.77824 -1.95073 1.46304
          CHANNELS 3 Zrotation Xrotation Yrotation
          JOINT rForeArm
          {
            OFFSET -28.1742 -1.7115 0.48768
            CHANNELS 3 Zrotation Xrotation Yrotation
            JOINT rHand
            {
              OFFSET -22.5879 0.773209 7.07136
              CHANNELS 3 Zrotation Xrotation Yrotation
              JOINT rThumb1
              {
                OFFSET -1.2192 -0.487915 3.41376
                CHANNELS 3 Zrotation Xrotation Yrotation
                JOINT rThumb2
                {
                  OFFSET -3.37035 -0.52449 3.41376
                  CHANNELS 3 Zrotation Xrotation Yrotation
                  End Site
                  {
                    OFFSET -1.78271 -1.18214 1.43049
                  }
                }
              }
              JOINT rIndex1
              {
                OFFSET -7.75947 0.938293 5.60832
                CHANNELS 3 Zrotation Xrotation Yrotation
                JOINT rIndex2
                {
                  OFFSET -2.54057 -0.884171 1.56538
                  CHANNELS 3 Zrotation Xrotation Yrotation
                  End Site
                  {
                    OFFSET -1.62519 -0.234802 1.16502
                  }
                }
              }
              JOINT rMid1
              {
                OFFSET -8.24714 1.18213 3.41376
                CHANNELS 3 Zrotation Xrotation Yrotation
                JOINT rMid2
                {
                  OFFSET -3.10165 -0.590103 1.0647
                  CHANNELS 3 Zrotation Xrotation Yrotation
                  End Site
                  {
                    OFFSET -2.48547 -0.328903 0.83742
                  }
                }
              }
              JOINT rRing1
              {
                OFFSET -8.82822 0.546677 1.51678
                CHANNELS 3 Zrotation Xrotation Yrotation
                JOINT rRing2
                {
                  OFFSET -2.60934 -0.819778 -0.0198488
                  CHANNELS 3 Zrotation Xrotation Yrotation
                  End Site
                  {
                    OFFSET -2.33842 -0.294052 0.168128
                  }
                }
              }
              JOINT rPinky1
              {
                OFFSET -8.27202 -0.0477905 -0.4584
                CHANNELS 3 Zrotation Xrotation Yrotation
                JOINT rPinky2
                {
                  OFFSET -1.82734 -0.647385 -0.700984
                  CHANNELS 3 Zrotation Xrotation Yrotation
                  End Site
                  {
                    OFFSET -1.69225 -0.51767 -0.607171
                  }
                }
              }
            }
          }
        }
      }
      JOINT lCollar
      {
        OFFSET 2.68224 19.2634 -4.8768
        CHANNELS 3 Zrotation Xrotation Yrotation
        JOINT lShldr
        {
          OFFSET 8.77824 -1.95073 1.46304
          CHANNELS 3 Zrotation Xrotation Yrotation
          JOINT lForeArm
          {
            OFFSET 28.1742 -1.7115 0.48768
            CHANNELS 3 Zrotation Xrotation Yrotation
            JOINT lHand
            {
              OFFSET 22.5879 0.773209 7.07136
              CHANNELS 3 Zrotation Xrotation Yrotation
              JOINT lThumb1
              {
                OFFSET 1.2192 -0.487915 3.41376
                CHANNELS 3 Zrotation Xrotation Yrotation
                JOINT lThumb2
                {
                  OFFSET 3.37035 -0.52449 3.41376
                  CHANNELS 3 Zrotation Xrotation Yrotation
                  End Site
                  {
                    OFFSET 1.78271 -1.18214 1.43049
                  }
                }
              }
              JOINT lIndex1
              {
                OFFSET 7.75947 0.938293 5.60832
                CHANNELS 3 Zrotation Xrotation Yrotation
                JOINT lIndex2
                {
                  OFFSET 2.54057 -0.884171 1.56538
                  CHANNELS 3 Zrotation Xrotation Yrotation
                  End Site
                  {
                    OFFSET 1.62519 -0.234802 1.16502
                  }
                }
              }
              JOINT lMid1
              {
                OFFSET 8.24714 1.18213 3.41376
                CHANNELS 3 Zrotation Xrotation Yrotation
                JOINT lMid2
                {
                  OFFSET 3.10165 -0.590103 1.0647
                  CHANNELS 3 Zrotation Xrotation Yrotation
                  End Site
                  {
                    OFFSET 2.48547 -0.328903 0.83742
                  }
                }
              }
              JOINT lRing1
              {
                OFFSET 8.82822 0.546677 1.51678
                CHANNELS 3 Zrotation Xrotation Yrotation
                JOINT lRing2
                {
                  OFFSET 2.60934 -0.819778 -0.0198488
                  CHANNELS 3 Zrotation Xrotation Yrotation
                  End Site
                  {
                    OFFSET 2.33842 -0.294052 0.168128
                  }
                }
              }
              JOINT lPinky1
              {
                OFFSET 8.27202 -0.0477905 -0.4584
                CHANNELS 3 Zrotation Xrotation Yrotation
                JOINT lPinky2
                {
                  OFFSET 1.82734 -0.647385 -0.700984
                  CHANNELS 3 Zrotation Xrotation Yrotation
                  End Site
                  {
                    OFFSET 1.69225 -0.51767 -0.607171
                  }
                }
              }
            }
          }
        }
      }
    }
  }
  JOINT rButtock
  {
    OFFSET -8.77824 4.35084 1.2192
    CHANNELS 3 Zrotation Xrotation Yrotation
    JOINT rThigh
    {
      OFFSET 0 -1.70687 -2.19456
      CHANNELS 3 Zrotation Xrotation Yrotation
      JOINT rShin
      {
        OFFSET 0 -36.8199 0.73152
        CHANNELS 3 Zrotation Xrotation Yrotation
        JOINT rFoot
        {
          OFFSET 0.73152 -45.1104 -5.12064
          CHANNELS 3 Zrotation Xrotation Yrotation
          End Site
          {
            OFFSET -1.1221 -3.69964 12.103
          }
        }
      }
    }
  }
  JOINT lButtock
  {
    OFFSET 8.77824 4.35084 1.2192
    CHANNELS 3 Zrotation Xrotation Yrotation
    JOINT lThigh
    {
      OFFSET 0 -1.70687 -2.19456
      CHANNELS 3 Zrotation Xrotation Yrotation
      JOINT lShin
      {
        OFFSET 0 -36.8199 0.73152
        CHANNELS 3 Zrotation Xrotation Yrotation
        JOINT lFoot
        {
          OFFSET -0.73152 -45.1104 -5.12064
          CHANNELS 3 Zrotation Xrotation Yrotation
          End Site
          {
            OFFSET 1.1221 -3.69964 12.103
          }
        }
      }
    }
  }
}
MOTION
Frames:	4
Frame Time:	0.03333
0.025484591722488403 45.949886322021484 0.1548539251089096 -18.087279349565506 -9.343760758638382 -3.2838164269924164 -2.997954972088337 23.054989278316498 1.0368662327528 9.488799199461937 -9.175049811601639 -0.9819585643708706 -6.125741600990295 17.381433248519897 -0.03578603267669678 2.5885047018527985 -18.378422409296036 -1.554529219865799 5.085824355483055 1.5257945470511913 -2.0030448585748672 4.2214335501194 5.24604108184576 1.2930802255868912 3.0897049605846405 3.7225735187530518 -4.378685764968395 32.84567177295685 26.07807219028473 23.176705241203308 -21.492806375026703 -25.00254124403 52.36277103424072 -3.983479365706444 -1.404491811990738 1.8520343117415905 2.354537285864353 4.633772894740105 2.2268282622098923 -4.183584563434124 1.755664050579071 -1.8770531192421913 -1.6974782198667526 -5.606534332036972 3.6991940438747406 4.456383660435677 2.8129827976226807 -1.2356078624725342 0.5960599333047867 4.005357474088669 -3.5437727719545364 -4.583909958600998 -0.16836091876029968 0.3074296424165368 3.702523000538349 3.742469474673271 0.9433892369270325 3.668358027935028 -2.7560579404234886 1.9732176885008812 4.008778631687164 -2.8711317479610443 2.7975191920995712 2.730048894882202 -0.6916334107518196 1.6097129881381989 0.789187029004097 4.541365094482899 -1.022477773949504 -36.415673196315765 27.617745995521545 -33.03033918142319 22.583371102809906 -30.521089732646942 -61.46874189376831 -6.2868887186050415 2.4002545326948166 -4.09783199429512 -0.8348023518919945 1.9586817920207977 -3.3405079320073128 -0.8572212606668472 -6.308256536722183 -4.3233199417591095 2.8542928397655487 2.7471721172332764 -0.7451066002249718 -0.6685278564691544 8.020532503724098 -0.9940865077078342 2.15327437967062 5.86810402572155 0.31843721866607666 -4.584714956581593 0.5640139058232307 -0.0151742622256279 0.19018915481865406 0.39645127952098846 0.25163881480693817 -14.450785964727402 -3.2327381148934364 7.922807559370995 -0.6298269331455231 -0.69706991314888 3.3003059774637222 -3.0930034071207047 1.8884213268756866 -1.2716399878263474 -1.939932145178318 2.3317167162895203 0.6421329081058502 -31.835744976997375 -28.711824417114258 -42.19827443361282 -16.07424795627594 39.22950088977814 15.050879269838333 -8.062711581587791 -14.002216011285782 -3.707783482968807 3.0931562930345535 1.9581399857997894 -1.2045743688941002 40.52100598812103 -33.07210385799408 33.46002638339996 20.90949296951294 52.53819823265076 -16.50927409529686 4.4340525940060616 -2.600419744849205 9.601264894008636
0.07453557103872299 62.29990005493164 0.2380814105272293 -19.36711147427559 12.304476946592331 3.0472268164157867 -0.6625475361943245 31.68673485517502 -2.0361392945051193 1.548527106642723 -18.177755624055862 2.4044335819780827 -7.934076189994812 22.616997957229614 -2.783660888671875 14.88077625632286 -27.313548624515533 -2.9457910358905792 -2.8437282890081406 0.28862563893198967 -13.375653326511383 -5.090766996145248 10.367036908864975 -8.349579200148582 1.5959908068180084 7.0269303023815155 -10.694950371980667 52.739492654800415 34.83162760734558 23.47381889820099 -32.76509553194046 -40.24985879659653 65.2145004272461 -2.4493979662656784 -18.271143436431885 -3.5756783187389374 4.705032147467136 -1.8527472764253616 4.2144108563661575 2.990100122988224 6.54560923576355 -4.042260982096195 2.1760768443346024 -9.69709888100624 -0.7871009409427643 0.37492504343390465 -4.407969117164612 -4.012842178344727 18.370618522167206 6.8787650763988495 -17.17733860015869 3.5812385380268097 11.178804785013199 0.0015532085672020912 -4.452926628291607 4.600854143500328 -7.330351173877716 7.351073920726776 1.1709589138627052 -6.440525650978088 2.9908105731010437 -0.2492496371269226 1.781139001250267 -0.08840292692184448 -10.614454597234726 9.159014225006104 -1.917434111237526 -2.394189052283764 -2.962723486125469 -53.649137020111084 35.49633800983429 -35.458349883556366 36.40039265155792 -24.33700203895569 -71.23774409294128 4.269924201071262 -7.5831688195466995 16.26758024096489 -6.236841380596161 -8.610353618860245 4.055903367698193 2.826143726706505 7.098875194787979 -1.0963918268680573 0.6787584722042084 0.12017905712127686 -5.954514741897583 -14.216271042823792 12.014013826847076 3.6734428256750107 6.304465234279633 12.097233384847641 9.413507580757141 -13.317995220422745 7.308857291936874 7.708621770143509 -1.7405829951167107 16.354447603225708 8.150658532977104 -13.878166526556015 1.3487779721617699 -8.725112602114677 -0.6528134644031525 -15.191078335046768 5.200675204396248 -3.821115866303444 7.632318288087845 9.38603974878788 -10.612060725688934 0.6929513812065125 0.05941763520240784 -38.8588947057724 -41.732377409935 -40.74426770210266 -33.831533789634705 65.94052612781525 29.35798466205597 -20.68101167678833 -9.040378779172897 -10.120253562927246 15.106325894594193 -2.2040100395679474 1.2475118413567543 57.18505024909973 -47.54054009914398 54.36212718486786 34.97495949268341 68.81626188755035 -33.854493498802185 16.9453664124012 -2.416629418730736 5.263542830944061
0.11809799820184708 70.95260620117188 0.413521409034729 -16.548426300287247 -2.052497249096632 12.289786487817764 -2.9798446968197823 29.828886687755585 -2.7698227018117905 11.31203681230545 -13.938408941030502 -2.33360817655921 -6.450363993644714 20.684112310409546 0.12267351150512695 8.52121040225029 -23.018387854099274 0.07443532347679138 5.440630987286568 -0.03062160685658455 -8.004396334290504 0.9370900690555573 7.683832794427872 -5.96610389649868 2.453839033842087 6.471691578626633 -4.833958558738232 48.83314490318298 30.141613483428955 29.624746441841125 -27.69717425107956 -37.25343972444534 67.85911560058594 -8.841598257422447 -7.086331844329834 -3.36636945605278 2.645052708685398 5.49095056951046 3.638014867901802 -6.51545986533165 2.6671457290649414 -3.714720346033573 0.11711664497852325 -7.526220828294754 1.740248054265976 4.320438578724861 -1.2289077043533325 -3.101915717124939 7.512328997254372 5.433754473924637 -9.708984419703484 -3.347776383161545 3.828101009130478 1.9933749921619892 -0.5158085748553276 4.794010743498802 -2.176894247531891 4.466744363307953 0.6773358955979347 2.1880679950118065 6.068699061870575 0.25898873805999756 2.062840685248375 3.957749605178833 -3.52010864764452 5.354759395122528 -0.8224330097436905 4.241982288658619 -2.7613646909594536 -45.15855610370636 32.09556519985199 -41.84330552816391 31.37645959854126 -30.907142758369446 -73.8420832157135 -1.5499060973525047 -6.019381955265999 4.68959704041481 -3.5340487584471703 0.4063640534877777 -1.3803147990256548 -1.6133413463830948 -4.015595801174641 -3.1599707901477814 2.722827047109604 0.16471445560455322 -3.429284356534481 -5.544679239392281 8.59626330435276 1.893239077180624 2.6126938685774803 9.73797507584095 4.3949174880981445 -7.804049402475357 -0.3419075533747673 4.889247603714466 -0.257702199742198 8.254032209515572 3.734283372759819 -17.420216649770737 -2.7042007818818092 2.223965171724558 0.007632225751876831 -7.460742741823196 8.384400978684425 -4.423529282212257 3.324256092309952 3.552444353699684 -7.436228692531586 4.401631057262421 -0.14159783720970154 -38.02500665187836 -39.699756503105164 -42.36476182937622 -19.60784375667572 56.64309918880463 18.72893214225769 -21.037115156650543 -14.843761771917343 -6.4416199922561646 10.098308399319649 1.3256911933422089 -2.1476927027106285 50.091524720191956 -40.55045664310455 49.68242883682251 23.927911520004272 61.85421824455261 -17.902375906705856 14.018408507108688 -0.5272384732961655 9.377761781215668
0.152166910469532 69.97159576416016 0.5328453481197357 -2.28884294629097 0.36953212693333626 24.124388694763184 -1.2142698839306831 25.614835917949677 -6.578546091914177 9.610346183180809 -12.32635572552681 -2.221494521945715 -8.431282639503479 22.16793179512024 -2.0507097244262695 6.480172723531723 -21.486035138368607 -4.956938177347183 5.2692726999521255 -0.9639284200966358 -4.728984609246254 -0.007283538579940796 5.97375825047493 -1.3562127202749252 2.6208655536174774 5.635145455598831 -5.3711191937327385 51.22408211231232 27.655243277549744 23.563214242458344 -27.250396013259888 -32.599463760852814 69.325350522995 -10.941596254706383 -5.717152655124664 -5.36787673830986 2.4724793806672096 6.3282933086156845 3.677590861916542 -4.440330974757671 4.292642176151276 -1.820479966700077 2.1176261454820633 -9.488921910524368 2.2426150739192963 4.963010028004646 -2.115989327430725 -0.985073447227478 3.7735549360513687 4.203473478555679 -6.8400829285383224 -5.5130647122859955 -0.4962877929210663 0.7911096699535847 2.7813129499554634 2.873232588171959 -3.3075526356697083 3.490634858608246 1.4299744740128517 1.0273876413702965 6.862681210041046 -0.11822640895843506 2.574724182486534 6.311168074607849 -1.861194558441639 5.574802458286285 1.3428553193807602 4.538103528320789 -1.6634989902377129 -47.57495820522308 31.981260180473328 -43.017501533031464 29.57618772983551 -35.86455702781677 -75.28509020805359 5.7245126366615295 -6.371121481060982 5.1502905786037445 -4.198678694665432 0.39651498198509216 -3.3662598207592964 -1.3565251976251602 -6.213427037000656 -4.9130679666996 0.6233279407024384 2.2172749042510986 -2.789303921163082 -3.1526852399110794 5.459457412362099 0.19092684611678123 1.5415697917342186 9.88302893936634 -0.3869462013244629 -7.060106545686722 -1.4384697005152702 5.357003398239613 0.4903068859130144 7.349449172616005 6.321075484156609 -15.736636966466904 -5.52554402500391 5.164964273571968 1.5644212067127228 -3.395012766122818 8.538782224059105 -4.165350571274757 1.5153421461582184 4.924807325005531 -7.600868046283722 3.883492648601532 0.43371453881263733 -35.175631642341614 -37.06816613674164 -37.512956857681274 -9.202417731285095 54.5319002866745 14.877803027629852 -16.933389008045197 -13.817862421274185 -4.256263040006161 7.278512790799141 -0.19237473607063293 -0.5610587820410728 52.90223836898804 -37.79228746891022 49.567973613739014 19.868604093790054 61.096864342689514 -17.5828617811203 14.184603542089462 -4.249436482787132 5.940628945827484
